<svg width="244" height="104" viewBox="0 0 244 104" fill="none" xmlns="http://www.w3.org/2000/svg">
<g clip-path="url(#clip0_12_83)">
<path d="M32.3014 22.2169C46.1211 22.2169 54.6127 33.872 54.6127 48.0247C54.6127 62.1774 46.1211 73.8325 32.3014 73.8325C23.5601 73.8325 17.566 69.4202 14.1527 62.8434V73H9.99016V4.73419H14.1527V33.206C17.566 26.6292 23.5601 22.2169 32.3014 22.2169ZM32.3014 69.67C43.2073 69.67 50.4501 61.0119 50.4501 48.0247C50.4501 35.0375 43.2073 26.3794 32.3014 26.3794C21.4788 26.3794 14.1527 35.0375 14.1527 48.0247C14.1527 61.0119 21.4788 69.67 32.3014 69.67ZM64.6236 73V4.73419H68.7862V73H64.6236ZM101.084 73.8325C89.3459 73.8325 78.773 64.5917 78.773 48.0247C78.773 31.4578 89.3459 22.2169 101.084 22.2169C112.823 22.2169 123.396 31.4578 123.396 48.0247C123.396 64.5917 112.823 73.8325 101.084 73.8325ZM101.084 69.67C111.907 69.67 119.233 61.0119 119.233 48.0247C119.233 35.0375 111.907 26.3794 101.084 26.3794C90.2617 26.3794 82.9356 35.0375 82.9356 48.0247C82.9356 61.0119 90.2617 69.67 101.084 69.67ZM152.384 73.8325C140.646 73.8325 130.073 64.5917 130.073 48.0247C130.073 31.4578 140.646 22.2169 152.384 22.2169C164.123 22.2169 174.696 31.4578 174.696 48.0247C174.696 64.5917 164.123 73.8325 152.384 73.8325ZM152.384 69.67C163.207 69.67 170.533 61.0119 170.533 48.0247C170.533 35.0375 163.207 26.3794 152.384 26.3794C141.562 26.3794 134.236 35.0375 134.236 48.0247C134.236 61.0119 141.562 69.67 152.384 69.67ZM224.414 22.2169C232.489 22.2169 237.318 29.6262 237.318 37.2021V73H233.155V39.0336C233.155 31.6243 230.325 26.3794 223.665 26.3794C219.752 26.3794 213.092 28.9602 213.092 38.6173V73H208.929V39.0336C208.929 31.6243 206.099 26.3794 199.439 26.3794C195.526 26.3794 188.866 28.9602 188.866 38.6173V73H184.703V23.0494H188.866V28.4607C190.947 24.8809 194.527 22.2169 200.188 22.2169C205.683 22.2169 209.595 25.6302 211.677 30.1257C213.425 25.7134 217.588 22.2169 224.414 22.2169Z" fill="black"/>
</g>
<defs>
<clipPath id="clip0_12_83">
<rect width="244" height="104" fill="white"/>
</clipPath>
</defs>
</svg>
