<svg width="145" height="105" viewBox="0 0 145 105" fill="none" xmlns="http://www.w3.org/2000/svg">
<path d="M17.4 34.8458C25.7 34.8458 30.8 41.8458 30.8 50.3458C30.8 58.8458 25.7 65.8458 17.4 65.8458C12.15 65.8458 8.55 63.1958 6.5 59.2458V65.3458H4V24.3458H6.5V41.4458C8.55 37.4958 12.15 34.8458 17.4 34.8458ZM17.4 63.3458C23.95 63.3458 28.3 58.1458 28.3 50.3458C28.3 42.5458 23.95 37.3458 17.4 37.3458C10.9 37.3458 6.5 42.5458 6.5 50.3458C6.5 58.1458 10.9 63.3458 17.4 63.3458ZM36.8125 65.3458V24.3458H39.3125V65.3458H36.8125ZM58.7105 65.8458C51.6605 65.8458 45.3105 60.2958 45.3105 50.3458C45.3105 40.3958 51.6605 34.8458 58.7105 34.8458C65.7605 34.8458 72.1105 40.3958 72.1105 50.3458C72.1105 60.2958 65.7605 65.8458 58.7105 65.8458ZM58.7105 63.3458C65.2105 63.3458 69.6105 58.1458 69.6105 50.3458C69.6105 42.5458 65.2105 37.3458 58.7105 37.3458C52.2105 37.3458 47.8105 42.5458 47.8105 50.3458C47.8105 58.1458 52.2105 63.3458 58.7105 63.3458ZM89.5211 65.8458C82.4711 65.8458 76.1211 60.2958 76.1211 50.3458C76.1211 40.3958 82.4711 34.8458 89.5211 34.8458C96.5711 34.8458 102.921 40.3958 102.921 50.3458C102.921 60.2958 96.5711 65.8458 89.5211 65.8458ZM89.5211 63.3458C96.0211 63.3458 100.421 58.1458 100.421 50.3458C100.421 42.5458 96.0211 37.3458 89.5211 37.3458C83.0211 37.3458 78.6211 42.5458 78.6211 50.3458C78.6211 58.1458 83.0211 63.3458 89.5211 63.3458ZM132.782 34.8458C137.632 34.8458 140.532 39.2958 140.532 43.8458V65.3458H138.032V44.9458C138.032 40.4958 136.332 37.3458 132.332 37.3458C129.982 37.3458 125.982 38.8958 125.982 44.6958V65.3458H123.482V44.9458C123.482 40.4958 121.782 37.3458 117.782 37.3458C115.432 37.3458 111.432 38.8958 111.432 44.6958V65.3458H108.932V35.3458H111.432V38.5958C112.682 36.4458 114.832 34.8458 118.232 34.8458C121.532 34.8458 123.882 36.8958 125.132 39.5958C126.182 36.9458 128.682 34.8458 132.782 34.8458Z" fill="#B2B2B2"/>
</svg>
